# Blender 3.5.1
# www.blender.org
mtllib K.mtl
o K
v -0.230380 0.080000 0.301266
v -0.230380 0.080000 -0.301266
v -0.073418 0.080000 -0.301266
v -0.073418 0.080000 -0.070042
v -0.071730 0.080000 -0.070042
v 0.044726 0.080000 -0.301266
v 0.211814 0.080000 -0.301266
v 0.059916 0.080000 -0.037975
v 0.230380 0.080000 0.301266
v 0.051477 0.080000 0.301266
v -0.040506 0.080000 0.091139
v -0.073418 0.080000 0.141772
v -0.073418 0.080000 0.301266
v -0.230380 -0.080000 0.301266
v -0.230380 -0.080000 -0.301266
v -0.073418 -0.080000 -0.301266
v -0.073418 -0.080000 -0.070042
v -0.071730 -0.080000 -0.070042
v 0.044726 -0.080000 -0.301266
v 0.211814 -0.080000 -0.301266
v 0.059916 -0.080000 -0.037975
v 0.230380 -0.080000 0.301266
v 0.051477 -0.080000 0.301266
v -0.040506 -0.080000 0.091139
v -0.073418 -0.080000 0.141772
v -0.073418 -0.080000 0.301266
v -0.230380 -0.080000 0.301266
v -0.230380 0.080000 0.301266
v -0.230380 -0.080000 -0.301266
v -0.230380 0.080000 -0.301266
v -0.073418 -0.080000 -0.301266
v -0.073418 0.080000 -0.301266
v -0.073418 -0.080000 -0.070042
v -0.073418 0.080000 -0.070042
v -0.071730 -0.080000 -0.070042
v -0.071730 0.080000 -0.070042
v 0.044726 -0.080000 -0.301266
v 0.044726 0.080000 -0.301266
v 0.211814 -0.080000 -0.301266
v 0.211814 0.080000 -0.301266
v 0.059916 -0.080000 -0.037975
v 0.059916 0.080000 -0.037975
v 0.230380 -0.080000 0.301266
v 0.230380 0.080000 0.301266
v 0.051477 -0.080000 0.301266
v 0.051477 0.080000 0.301266
v -0.040506 -0.080000 0.091139
v -0.040506 0.080000 0.091139
v -0.073418 -0.080000 0.141772
v -0.073418 0.080000 0.141772
v -0.073418 -0.080000 0.301266
v -0.073418 0.080000 0.301266
vn -0.0000 1.0000 -0.0000
vn -0.0000 -1.0000 -0.0000
vn -0.7071 -0.0000 0.7071
vn -0.7071 -0.0000 -0.7071
vn 0.7071 -0.0000 -0.7071
vn -0.5245 -0.0000 -0.8514
vn 0.8659 -0.0000 -0.5001
vn 0.9996 -0.0000 0.0288
vn 0.8512 -0.0000 0.5249
vn -0.5473 -0.0000 0.8370
vn -0.0818 -0.0000 0.9966
vn 0.9588 -0.0000 0.2842
vn 0.7071 -0.0000 0.7071
vt 0.000000 0.000000
vt 0.083333 0.000000
vt 0.166667 0.000000
vt 0.250000 0.000000
vt 0.333333 0.000000
vt 0.416667 0.000000
vt 0.500000 0.000000
vt 0.583333 0.000000
vt 0.666667 0.000000
vt 0.750000 0.000000
vt 0.833333 0.000000
vt 0.916667 0.000000
vt 1.000000 0.000000
vt 0.000000 0.000000
vt 0.083333 0.000000
vt 0.166667 0.000000
vt 0.250000 0.000000
vt 0.333333 0.000000
vt 0.416667 0.000000
vt 0.500000 0.000000
vt 0.583333 0.000000
vt 0.666667 0.000000
vt 0.750000 0.000000
vt 0.833333 0.000000
vt 0.916667 0.000000
vt 1.000000 0.000000
vt 0.000000 0.000000
vt 1.000000 0.000000
vt 0.000000 1.000000
vt 1.000000 1.000000
vt 0.076923 0.000000
vt 0.076923 1.000000
vt 0.153846 0.000000
vt 0.153846 1.000000
vt 0.230769 0.000000
vt 0.230769 1.000000
vt 0.307692 0.000000
vt 0.307692 1.000000
vt 0.384615 0.000000
vt 0.384615 1.000000
vt 0.461538 0.000000
vt 0.461538 1.000000
vt 0.538462 0.000000
vt 0.538462 1.000000
vt 0.615385 0.000000
vt 0.615385 1.000000
vt 0.692308 0.000000
vt 0.692308 1.000000
vt 0.769231 0.000000
vt 0.769231 1.000000
vt 0.846154 0.000000
vt 0.846154 1.000000
vt 0.923077 0.000000
vt 0.923077 1.000000
s 0
f 1/1/1 3/3/1 2/2/1
f 1/1/1 4/4/1 3/3/1
f 5/5/1 7/7/1 6/6/1
f 5/5/1 8/8/1 7/7/1
f 1/1/1 5/5/1 4/4/1
f 1/1/1 8/8/1 5/5/1
f 1/1/1 11/11/1 8/8/1
f 11/11/1 9/9/1 8/8/1
f 1/1/1 12/12/1 11/11/1
f 10/10/1 9/9/1 11/11/1
f 1/1/1 13/13/1 12/12/1
f 14/14/2 15/15/2 16/16/2
f 14/14/2 16/16/2 17/17/2
f 18/18/2 19/19/2 20/20/2
f 18/18/2 20/20/2 21/21/2
f 14/14/2 17/17/2 18/18/2
f 14/14/2 18/18/2 21/21/2
f 14/14/2 21/21/2 24/24/2
f 24/24/2 21/21/2 22/22/2
f 14/14/2 24/24/2 25/25/2
f 23/23/2 24/24/2 22/22/2
f 14/14/2 25/25/2 26/26/2
s 1
f 28/29/3 30/32/4 29/31/4 27/27/3
f 30/32/4 32/34/5 31/33/5 29/31/4
f 32/34/5 34/36/5 33/35/5 31/33/5
f 34/36/5 36/38/6 35/37/6 33/35/5
f 36/38/6 38/40/6 37/39/6 35/37/6
f 38/40/6 40/42/7 39/41/7 37/39/6
f 40/42/7 42/44/8 41/43/8 39/41/7
f 42/44/8 44/46/9 43/45/9 41/43/8
f 44/46/9 46/48/10 45/47/10 43/45/9
f 46/48/10 48/50/11 47/49/11 45/47/10
f 48/50/11 50/52/12 49/51/12 47/49/11
f 50/52/12 52/54/13 51/53/13 49/51/12
f 52/54/13 28/30/3 27/28/3 51/53/13
