# Blender 3.5.1
# www.blender.org
mtllib V.mtl
o V
v -0.101266 0.080000 0.301266
v -0.231224 0.080000 -0.301266
v -0.064135 0.080000 -0.301266
v -0.000844 0.080000 0.152743
v 0.000844 0.080000 0.152743
v 0.064135 0.080000 -0.301266
v 0.231224 0.080000 -0.301266
v 0.101266 0.080000 0.301266
v -0.101266 -0.080000 0.301266
v -0.231224 -0.080000 -0.301266
v -0.064135 -0.080000 -0.301266
v -0.000844 -0.080000 0.152743
v 0.000844 -0.080000 0.152743
v 0.064135 -0.080000 -0.301266
v 0.231224 -0.080000 -0.301266
v 0.101266 -0.080000 0.301266
v -0.101266 -0.080000 0.301266
v -0.101266 0.080000 0.301266
v -0.231224 -0.080000 -0.301266
v -0.231224 0.080000 -0.301266
v -0.064135 -0.080000 -0.301266
v -0.064135 0.080000 -0.301266
v -0.000844 -0.080000 0.152743
v -0.000844 0.080000 0.152743
v 0.000844 -0.080000 0.152743
v 0.000844 0.080000 0.152743
v 0.064135 -0.080000 -0.301266
v 0.064135 0.080000 -0.301266
v 0.231224 -0.080000 -0.301266
v 0.231224 0.080000 -0.301266
v 0.101266 -0.080000 0.301266
v 0.101266 0.080000 0.301266
vn -0.0000 1.0000 -0.0000
vn -0.0000 -1.0000 -0.0000
vn -0.6282 -0.0000 0.7781
vn -0.7781 -0.0000 -0.6282
vn 0.6565 -0.0000 -0.7543
vn -0.6565 -0.0000 -0.7543
vn 0.7781 -0.0000 -0.6282
vn 0.6282 -0.0000 0.7781
vt 0.000000 0.000000
vt 0.142857 0.000000
vt 0.285714 0.000000
vt 0.428571 0.000000
vt 0.571429 0.000000
vt 0.714286 0.000000
vt 0.857143 0.000000
vt 1.000000 0.000000
vt 0.000000 0.000000
vt 0.142857 0.000000
vt 0.285714 0.000000
vt 0.428571 0.000000
vt 0.571429 0.000000
vt 0.714286 0.000000
vt 0.857143 0.000000
vt 1.000000 0.000000
vt 0.000000 0.000000
vt 1.000000 0.000000
vt 0.000000 1.000000
vt 1.000000 1.000000
vt 0.125000 0.000000
vt 0.125000 1.000000
vt 0.250000 0.000000
vt 0.250000 1.000000
vt 0.375000 0.000000
vt 0.375000 1.000000
vt 0.500000 0.000000
vt 0.500000 1.000000
vt 0.625000 0.000000
vt 0.625000 1.000000
vt 0.750000 0.000000
vt 0.750000 1.000000
vt 0.875000 0.000000
vt 0.875000 1.000000
s 0
f 1/1/1 3/3/1 2/2/1
f 1/1/1 4/4/1 3/3/1
f 5/5/1 7/7/1 6/6/1
f 5/5/1 8/8/1 7/7/1
f 1/1/1 5/5/1 4/4/1
f 1/1/1 8/8/1 5/5/1
f 9/9/2 10/10/2 11/11/2
f 9/9/2 11/11/2 12/12/2
f 13/13/2 14/14/2 15/15/2
f 13/13/2 15/15/2 16/16/2
f 9/9/2 12/12/2 13/13/2
f 9/9/2 13/13/2 16/16/2
s 1
f 18/19/3 20/22/4 19/21/4 17/17/3
f 20/22/4 22/24/5 21/23/5 19/21/4
f 22/24/5 24/26/5 23/25/5 21/23/5
f 24/26/5 26/28/6 25/27/6 23/25/5
f 26/28/6 28/30/6 27/29/6 25/27/6
f 28/30/6 30/32/7 29/31/7 27/29/6
f 30/32/7 32/34/8 31/33/8 29/31/7
f 32/34/8 18/20/3 17/18/3 31/33/8
