# Blender 3.5.1
# www.blender.org
mtllib Y.mtl
o Y
v -0.078481 0.080000 0.301266
v -0.078481 0.080000 0.064135
v -0.232067 0.080000 -0.301266
v -0.059916 0.080000 -0.301266
v -0.000844 0.080000 -0.091139
v 0.000844 0.080000 -0.091139
v 0.059916 0.080000 -0.301266
v 0.232068 0.080000 -0.301266
v 0.078481 0.080000 0.064135
v 0.078481 0.080000 0.301266
v -0.078481 -0.080000 0.301266
v -0.078481 -0.080000 0.064135
v -0.232067 -0.080000 -0.301266
v -0.059916 -0.080000 -0.301266
v -0.000844 -0.080000 -0.091139
v 0.000844 -0.080000 -0.091139
v 0.059916 -0.080000 -0.301266
v 0.232068 -0.080000 -0.301266
v 0.078481 -0.080000 0.064135
v 0.078481 -0.080000 0.301266
v -0.078481 -0.080000 0.301266
v -0.078481 0.080000 0.301266
v -0.078481 -0.080000 0.064135
v -0.078481 0.080000 0.064135
v -0.232067 -0.080000 -0.301266
v -0.232067 0.080000 -0.301266
v -0.059916 -0.080000 -0.301266
v -0.059916 0.080000 -0.301266
v -0.000844 -0.080000 -0.091139
v -0.000844 0.080000 -0.091139
v 0.000844 -0.080000 -0.091139
v 0.000844 0.080000 -0.091139
v 0.059916 -0.080000 -0.301266
v 0.059916 0.080000 -0.301266
v 0.232068 -0.080000 -0.301266
v 0.232068 0.080000 -0.301266
v 0.078481 -0.080000 0.064135
v 0.078481 0.080000 0.064135
v 0.078481 -0.080000 0.301266
v 0.078481 0.080000 0.301266
vn -0.0000 1.0000 -0.0000
vn -0.0000 -1.0000 -0.0000
vn -0.7071 -0.0000 0.7071
vn -0.9803 -0.0000 0.1976
vn -0.8329 -0.0000 -0.5534
vn 0.6039 -0.0000 -0.7971
vn -0.6039 -0.0000 -0.7971
vn 0.8329 -0.0000 -0.5534
vn 0.9803 -0.0000 0.1976
vn 0.7071 -0.0000 0.7071
vt 0.000000 0.000000
vt 0.111111 0.000000
vt 0.222222 0.000000
vt 0.333333 0.000000
vt 0.444444 0.000000
vt 0.555556 0.000000
vt 0.666667 0.000000
vt 0.777778 0.000000
vt 0.888889 0.000000
vt 1.000000 0.000000
vt 0.000000 0.000000
vt 0.111111 0.000000
vt 0.222222 0.000000
vt 0.333333 0.000000
vt 0.444444 0.000000
vt 0.555556 0.000000
vt 0.666667 0.000000
vt 0.777778 0.000000
vt 0.888889 0.000000
vt 1.000000 0.000000
vt 0.000000 0.000000
vt 1.000000 0.000000
vt 0.000000 1.000000
vt 1.000000 1.000000
vt 0.100000 0.000000
vt 0.100000 1.000000
vt 0.200000 0.000000
vt 0.200000 1.000000
vt 0.300000 0.000000
vt 0.300000 1.000000
vt 0.400000 0.000000
vt 0.400000 1.000000
vt 0.500000 0.000000
vt 0.500000 1.000000
vt 0.600000 0.000000
vt 0.600000 1.000000
vt 0.700000 0.000000
vt 0.700000 1.000000
vt 0.800000 0.000000
vt 0.800000 1.000000
vt 0.900000 0.000000
vt 0.900000 1.000000
s 0
f 2/2/1 4/4/1 3/3/1
f 2/2/1 5/5/1 4/4/1
f 6/6/1 8/8/1 7/7/1
f 6/6/1 9/9/1 8/8/1
f 2/2/1 6/6/1 5/5/1
f 2/2/1 9/9/1 6/6/1
f 1/1/1 9/9/1 2/2/1
f 1/1/1 10/10/1 9/9/1
f 12/12/2 13/13/2 14/14/2
f 12/12/2 14/14/2 15/15/2
f 16/16/2 17/17/2 18/18/2
f 16/16/2 18/18/2 19/19/2
f 12/12/2 15/15/2 16/16/2
f 12/12/2 16/16/2 19/19/2
f 11/11/2 12/12/2 19/19/2
f 11/11/2 19/19/2 20/20/2
s 1
f 22/23/3 24/26/4 23/25/4 21/21/3
f 24/26/4 26/28/5 25/27/5 23/25/4
f 26/28/5 28/30/6 27/29/6 25/27/5
f 28/30/6 30/32/6 29/31/6 27/29/6
f 30/32/6 32/34/7 31/33/7 29/31/6
f 32/34/7 34/36/7 33/35/7 31/33/7
f 34/36/7 36/38/8 35/37/8 33/35/7
f 36/38/8 38/40/9 37/39/9 35/37/8
f 38/40/9 40/42/10 39/41/10 37/39/9
f 40/42/10 22/24/3 21/22/3 39/41/10
